<?xml version="1.0" standalone="no"?>
<!DOCTYPE svg PUBLIC "-//W3C//DTD SVG 1.1//EN" "http://www.w3.org/Graphics/SVG/1.1/DTD/svg11.dtd" >
<!--
2013-9-30: Created.
-->
<svg>
<metadata>
Created by iconfont
</metadata>
<defs>

<font id="iconfont" horiz-adv-x="1024" >
  <font-face
    font-family="iconfont"
    font-weight="500"
    font-stretch="normal"
    units-per-em="1024"
    ascent="896"
    descent="-128"
  />
    <missing-glyph />
    
    <glyph glyph-name="x" unicode="x" horiz-adv-x="1001"
d="M281 543q-27 -1 -53 -1h-83q-18 0 -36.5 -6t-32.5 -18.5t-23 -32t-9 -45.5v-76h912v41q0 16 -0.5 30t-0.5 18q0 13 -5 29t-17 29.5t-31.5 22.5t-49.5 9h-133v-97h-438v97zM955 310v-52q0 -23 0.5 -52t0.5 -58t-10.5 -47.5t-26 -30t-33 -16t-31.5 -4.5q-14 -1 -29.5 -0.5
t-29.5 0.5h-32l-45 128h-439l-44 -128h-29h-34q-20 0 -45 1q-25 0 -41 9.5t-25.5 23t-13.5 29.5t-4 30v167h911zM163 247q-12 0 -21 -8.5t-9 -21.5t9 -21.5t21 -8.5q13 0 22 8.5t9 21.5t-9 21.5t-22 8.5zM316 123q-8 -26 -14 -48q-5 -19 -10.5 -37t-7.5 -25t-3 -15t1 -14.5
t9.5 -10.5t21.5 -4h37h67h81h80h64h36q23 0 34 12t2 38q-5 13 -9.5 30.5t-9.5 34.5q-5 19 -11 39h-368zM336 498v228q0 11 2.5 23t10 21.5t20.5 15.5t34 6h188q31 0 51.5 -14.5t20.5 -52.5v-227h-327z" />
    

    
    <glyph glyph-name="add2" unicode="&#58891;" d="M477.856 418.144H307.424c-18.464 0-34.368-15.296-34.368-34.144 0-18.304 15.392-34.144 34.368-34.144h170.432v-170.432c0-18.464 15.296-34.368 34.144-34.368 18.304 0 34.144 15.392 34.144 34.368v170.432h170.432c18.464 0 34.368 15.296 34.368 34.144 0 18.304-15.392 34.144-34.368 34.144h-170.432V588.576c0 18.464-15.296 34.368-34.144 34.368-18.304 0-34.144-15.392-34.144-34.368v-170.432zM512-128C229.216-128 0 101.21600000000001 0 384S229.216 896 512 896s512-229.216 512-512-229.216-512-512-512z"  horiz-adv-x="1024" />

    
    <glyph glyph-name="angle_down" unicode="&#58892;" d="M572.416 288.768L210.144 651.04c-21.184 21.184-57.504 21.504-79.744-0.736-21.568-21.568-22.528-57.92-0.736-79.744l403.712-403.712c21.184-21.184 57.504-21.504 79.744 0.736a59.2 59.2 0 0 1 5.728 6.688L1016.64 572.064c21.184 21.184 21.504 57.504-0.736 79.744-21.568 21.568-57.92 22.528-79.744 0.736L572.384 288.768z"  horiz-adv-x="1152" />

    
    <glyph glyph-name="calendar" unicode="&#58893;" d="M1023.997441 580.938633V738.469317h-39.006683a39.99865 39.99865 0 0 0-39.742659 39.39067c0 21.759266 16.863431 39.390671 39.742659 39.390671H1063.388112c10.879633 0 20.703301-4.511848 27.83906-11.679606 7.135759-7.423749 11.55161-17.215419 11.55161-27.711065v-866.37076c0-10.879633-4.543847-20.703301-11.743603-27.83906a37.566732 37.566732 0 0 0-27.519072-11.583609H39.262676c-10.847634 0-20.639303 4.575846-27.743064 11.775602A39.198677 39.198677 0 0 0 0.032-88.510773V777.859987c0 10.815635 4.15986 20.607305 11.167623 27.743064a41.598596 41.598596 0 0 0 28.191049 11.647607h78.397354a39.99865 39.99865 0 0 0 39.742658-39.390671c0-21.759266-16.863431-39.390671-39.742658-39.39067H78.781342v-157.530684h945.1841z m0-78.781341H78.813341v-551.373391H1023.997441V502.157292zM236.344024 856.993316C236.344024 878.52859 254.615408 896 275.734695 896c21.759266 0 39.390671-16.991427 39.390671-39.006684v-158.266658c0-21.535273-18.271383-39.006684-39.390671-39.006684-21.759266 0-39.390671 16.991427-39.390671 39.006684V856.993316z m551.341393 0c0 21.535273 18.271383 39.006684 39.39067 39.006684 21.759266 0 39.390671-16.991427 39.390671-39.006684v-158.266658c0-21.535273-18.271383-39.006684-39.390671-39.006684-21.759266 0-39.390671 16.991427-39.39067 39.006684V856.993316zM393.874708 777.859987c0 21.759266 16.927429 39.390671 38.622696 39.390671h237.783975c21.34328 0 38.622696-18.271383 38.622697-39.390671 0-21.759266-16.927429-39.390671-38.622697-39.39067h-237.783975c-21.34328 0-38.622696 18.271383-38.622696 39.39067z m-157.530684-472.624049c0 21.759266 18.175387 39.390671 39.42267 39.390671h551.309393c21.759266 0 39.422669-18.271383 39.42267-39.390671 0-21.759266-18.175387-39.390671-39.42267-39.39067H275.766694c-21.759266 0-39.422669 18.271383-39.42267 39.39067z m0-157.530683c0 21.759266 18.175387 39.390671 39.42267 39.390671h551.309393c21.759266 0 39.422669-18.271383 39.42267-39.390671 0-21.759266-18.175387-39.390671-39.42267-39.390671H275.766694c-21.759266 0-39.422669 18.271383-39.42267 39.390671z"  horiz-adv-x="1102" />

    
    <glyph glyph-name="check_empty" unicode="&#58894;" d="M0 896h1024v-1024H0V896z m68.256-68.256v-887.456h887.456V827.744H68.256z"  horiz-adv-x="1024" />

    
    <glyph glyph-name="chevron_left" unicode="&#58895;" d="M379.424 371.776L742.176 734.528c17.792 17.792 18.4 47.872 0.224 66.048a47.2 47.2 0 0 1-66.048-0.224L281.856 405.856a47.424 47.424 0 0 1-10.624-49.856c2.144-7.008 5.984-13.6 11.488-19.136l394.496-394.496c17.792-17.792 47.872-18.4 66.048-0.224a47.2 47.2 0 0 1-0.224 66.048L379.424 371.808z"  horiz-adv-x="1024" />

    
    <glyph glyph-name="chevron_right" unicode="&#58896;" d="M645.44 371.776L282.688 734.528c-17.792 17.792-18.4 47.872-0.224 66.048a47.2 47.2 0 0 0 66.048-0.224l394.496-394.496c13.184-13.184 16.928-33.056 10.624-49.856a46.304 46.304 0 0 0-11.488-19.136L347.648-57.632c-17.792-17.792-47.872-18.4-66.048-0.224a47.2 47.2 0 0 0 0.224 66.048L645.44 371.808z"  horiz-adv-x="1024" />

    
    <glyph glyph-name="edit" unicode="&#58898;" d="M0 384c0-282.752 229.152-511.936 512-511.936 282.784 0 512 229.184 512 511.936S794.752 896 512 896C229.152 896 0 666.784 0 384z m669.664 220.448l83.136-85.728-237.888-241.792-86.432 89.696 241.184 237.824z m-306.88-395.072l50.72 135.2 80.608-79.296-131.328-55.872z m410.24-113.088H256.384a13.12 13.12 0 0 0-13.12 13.12V622.144c0 7.296 5.824 13.12 13.12 13.12h367.168l-53.76-57.088H311.584a11.008 11.008 0 0 1-10.88-11.008v-402.88c0-6.016 4.896-10.944 10.88-10.944h406.048a10.976 10.976 0 0 1 10.976 10.944v257.92l57.568 53.344v-366.144a13.28 13.28 0 0 0-13.184-13.12z m0.32 438.304l-87.104 86.752 42.784 42.752s19.584 18.624 44.928 0c25.344-18.464 47.328-42.752 47.328-42.752s11.36-24.352 0.064-37.024c-11.296-12.64-48-49.696-48-49.696z"  horiz-adv-x="1024" />

    
    <glyph glyph-name="error" unicode="&#58899;" d="M471.296 361.728l-157.184-157.184a44.64 44.64 0 0 1-0.224-63.168c17.504-17.504 45.664-17.28 63.168 0.224l157.184 157.184 157.184-157.184c17.536-17.536 45.792-17.6 63.168-0.224a44.544 44.544 0 0 1-0.224 63.168l-157.184 157.184 157.184 157.184c17.536 17.536 17.6 45.792 0.224 63.168a44.544 44.544 0 0 1-63.168-0.224l-157.184-157.184-157.184 157.184a44.64 44.64 0 0 1-63.168 0.224 44.544 44.544 0 0 1 0.224-63.168l157.184-157.184zM512-128C229.216-128 0 101.216 0 384S229.216 896 512 896s512-229.216 512-512-229.216-512-512-512z"  horiz-adv-x="1024" />

    
    <glyph glyph-name="info" unicode="&#58901;" d="M512-128C229.216-128 0 101.216 0 384S229.216 896 512 896s512-229.216 512-512-229.216-512-512-512z m22.272 712.352a44.512 44.512 0 1 1 0 89.056 44.512 44.512 0 0 1 0-89.056z m-89.056-44.512s-43.84 0-43.84-44.544 43.84-44.48 43.84-44.48h44.512v-222.336l-44.512-0.8s-43.84 0-43.84-44.992 43.84-44 43.84-44h178.08s44.224-1.792 44.224 44-44.224 44.992-44.224 44.992h-44.512v266.784s2.368 21.152-8.992 34.336-35.04 11.072-35.04 11.072h-89.536z"  horiz-adv-x="1024" />

    
    <glyph glyph-name="line" unicode="&#58903;" d="M354.464 502.144h315.072a118.144 118.144 0 0 0 0-236.288h-315.072a118.144 118.144 0 0 0 0 236.288z"  horiz-adv-x="1024" />

    
    <glyph glyph-name="ok" unicode="&#58904;" d="M384.384 254.368l-142.112 188.608a75.84 75.84 0 0 1-106.176 15.072 75.616 75.616 0 0 1-14.784-106.208l193.024-256.16a75.84 75.84 0 0 1 118.368-3.616L918.08 473.024c33.44 26.24 40.48 76.576 14.272 111.328a76.576 76.576 0 0 1-109.088 14.496L384.384 254.368z"  horiz-adv-x="1024" />

    
    <glyph glyph-name="add" unicode="&#58905;" d="M465.44 430.56H46.656C21.376 430.56 0 409.728 0 384c0-24.96 20.896-46.56 46.656-46.56h418.784v-418.784c0-25.28 20.832-46.656 46.56-46.656 24.96 0 46.56 20.896 46.56 46.656V337.44000000000005h418.784c25.28 0 46.656 20.832 46.656 46.56 0 24.96-20.896 46.56-46.656 46.56H558.56V849.344C558.56 874.624 537.728 896 512 896c-24.96 0-46.56-20.896-46.56-46.656v-418.784z"  horiz-adv-x="1024" />

    
    <glyph glyph-name="remove" unicode="&#58906;" d="M632.672 384L959.616 710.944a85.056 85.056 0 0 1-0.256 120.448 84.96 84.96 0 0 1-120.448 0.256L511.968 504.704 185.024 831.648a84.96 84.96 0 0 1-120.448-0.256 85.088 85.088 0 0 1-0.256-120.448L391.264 384 64.32 57.056a85.056 85.056 0 0 1 0.256-120.448 84.96 84.96 0 0 1 120.448-0.256l326.944 326.944 326.944-326.944a84.96 84.96 0 0 1 120.448 0.256 85.088 85.088 0 0 1 0.256 120.448L632.672 384z"  horiz-adv-x="1024" />

    
    <glyph glyph-name="search" unicode="&#58907;" d="M768.638597 165.338446l201.266198-223.849468a41.423987 41.423987 0 0 0-4.06243-59.241099 44.334862 44.334862 0 0 0-61.288308 4.414293l-202.481728 225.192949a424.571876 424.571876 0 0 0-232.454142-68.83739c-235.556943 0-426.491135 190.96618-426.491135 426.491134S234.093232 896 469.618187 896c235.556943 0 426.491135-190.96618 426.491134-426.491135 0-119.089964-48.813131-226.760343-127.502712-304.138431zM469.650175 128.296765C658.089331 128.296765 810.862275 281.069709 810.862275 469.508865S658.089331 810.720966 469.650175 810.720966 128.438074 657.948022 128.438074 469.508865 281.211018 128.296765 469.650175 128.296765z"  horiz-adv-x="1024" />

    
    <glyph glyph-name="success" unicode="&#58908;" d="M391.552 226.72c0.832-1.408 1.728-2.752 2.72-4.064l-2.4 3.2c2.272-3.008 4.832-5.664 7.616-7.904a42.816 42.816 0 0 1 56.576 1.568l277.056 217.888c18.848 14.816 22.72 43.296 7.872 63.008l2.4-3.2a43.232 43.232 0 0 1-61.632 8.352l-247.04-194.272-76.672 101.728a42.688 42.688 0 0 1-59.52 8.096 42.368 42.368 0 0 1-8.64-59.424l101.664-134.912zM512-128C229.216-128 0 101.216 0 384S229.216 896 512 896s512-229.216 512-512-229.216-512-512-512z"  horiz-adv-x="1024" />

    
    <glyph glyph-name="trash" unicode="&#58910;" d="M562.72 816.864h-187.456l-66.976-133.44c-1.056-2.112-2.24-4.096-3.552-5.92a39.968 39.968 0 0 0-33.344-18.912h-232c-21.728 0-39.36 18.368-39.36 39.552a40 40 0 0 0 39.36 39.552h208.032L314.176 870.656c2.24 4.448 5.056 8.32 8.288 11.52 7.264 8.448 18.048 13.792 30.08 13.792h233.632c11.648 0 22.112-5.184 29.376-13.248 3.072-3.104 5.728-6.816 7.872-11.072l67.232-133.952h208.48a40 40 0 0 0 39.552-39.552c0-21.856-17.696-39.552-39.552-39.552h-233.248a40 40 0 0 0-37.856 28.32l-65.248 129.952z m-15.168-280.384c0 23.744 19.744 42.976 42.784 42.976h-7.328c23.616 0 42.784-19.488 42.784-42.976v-461.76c0-23.744-19.744-42.976-42.784-42.976h7.328a43.04 43.04 0 0 0-42.784 42.976v461.76z m-234.656 0c0 23.744 19.744 42.976 42.784 42.976h-7.328c23.616 0 42.784-19.488 42.784-42.976v-461.76c0-23.744-19.744-42.976-42.784-42.976h7.328a43.04 43.04 0 0 0-42.784 42.976v461.76z m-234.688 0.928c0 23.232 19.744 42.048 42.784 42.048h-7.328c23.616 0 42.784-19.456 42.784-43.104v-584.192h625.76V542.496s2.048 36.96 40.32 36.96 38.272-36.96 38.272-36.96v-584.288a84.736 84.736 0 0 0-85.248-84.736H163.456a85.12 85.12 0 0 0-85.248 85.152V537.408z"  horiz-adv-x="1024" />

    
    <glyph glyph-name="warning" unicode="&#58912;" d="M512-128C229.216-128 0 101.216 0 384S229.216 896 512 896s512-229.216 512-512-229.216-512-512-512zM447.136 606.528l19.552-245.376c1.92-24 22.464-44.32 45.824-44.32 19.968 0 41.696 19.84 43.808 44.288l21.344 245.376c3.232 36.992-24.416 66.88-61.696 66.88h-6.624c-37.472 0-65.12-29.952-62.208-66.88zM512 94.624a66.784 66.784 0 1 1 0.032 133.536A66.784 66.784 0 0 1 512 94.624z"  horiz-adv-x="1024" />

    
    <glyph glyph-name="enlargement" unicode="&#58914;" d="M171.296-22.432l211.84 211.84c15.104 15.104 14.432 40.256-0.512 55.2-15.392 15.392-40.544 15.168-55.2 0.512L115.52 33.216v142.048c0 21.344-18.272 38.624-39.392 38.624-21.76 0-39.392-16.928-39.392-38.624v-237.792c0-10.528 4.448-20.096 11.52-27.072 6.848-7.264 16.384-11.552 27.104-11.552h237.792c21.344 0 38.624 18.272 38.624 39.392 0 21.76-16.928 39.392-38.624 39.392H171.264zM928.032 734.304l-211.84-211.84c-15.104-15.104-40.256-14.432-55.2 0.512-15.392 15.392-15.168 40.544-0.512 55.2l211.904 211.904h-142.048c-21.344 0-38.624 18.272-38.624 39.392 0 21.76 16.928 39.392 38.624 39.392h237.792c10.528 0 20.096-4.448 27.072-11.52 7.264-6.848 11.552-16.384 11.552-27.104v-237.792c0-21.344-18.272-38.624-39.392-38.624-21.76 0-39.392 16.928-39.392 38.624V734.336z m-55.968-756.736l-211.84 211.84c-15.104 15.104-14.432 40.256 0.512 55.2 15.392 15.392 40.544 15.168 55.2 0.512l211.904-211.904v142.048c0 21.344 18.272 38.624 39.392 38.624 21.76 0 39.392-16.928 39.392-38.624v-237.792c0-10.528-4.448-20.096-11.52-27.072a36.768 36.768 0 0 0-27.104-11.552h-237.792c-21.344 0-38.624 18.272-38.624 39.392 0 21.76 16.928 39.392 38.624 39.392h141.888zM115.328 734.304l211.84-211.84c15.104-15.104 40.256-14.432 55.2 0.512 15.392 15.392 15.168 40.544 0.512 55.2L170.976 790.08h142.048c21.344 0 38.624 18.272 38.624 39.392 0 21.76-16.928 39.392-38.624 39.392H75.232c-10.528 0-20.096-4.448-27.072-11.52a36.8 36.8 0 0 1-11.552-27.104v-237.792c0-21.344 18.272-38.624 39.392-38.624 21.76 0 39.392 16.928 39.392 38.624V734.336z"  horiz-adv-x="1024" />

    
    <glyph glyph-name="plus1" unicode="&#58915;" d="M477.856 418.144V659.04c0 17.76 14.464 32.16 32.544 32.16h3.2c17.952 0 32.544-13.984 32.544-32.16v-240.896h240.896c17.76 0 32.16-14.464 32.16-32.544v-3.2c0-17.952-13.984-32.544-32.16-32.544h-240.896v-240.896c0-17.76-14.464-32.16-32.544-32.16h-3.2a32.096 32.096 0 0 0-32.544 32.16v240.896H236.96A32.288 32.288 0 0 0 204.8 382.4v3.2c0 17.984 13.984 32.544 32.16 32.544h240.896zM512-128C229.216-128 0 101.21600000000001 0 384S229.216 896 512 896s512-229.216 512-512-229.216-512-512-512z m0 64c247.424 0 448 200.576 448 448S759.424 832 512 832 64 631.424 64 384s200.576-448 448-448z"  horiz-adv-x="1024" />

    
    <glyph glyph-name="minus" unicode="&#58916;" d="M512-128C229.216-128 0 101.21600000000001 0 384S229.216 896 512 896s512-229.216 512-512-229.216-512-512-512z m0 64c247.424 0 448 200.576 448 448S759.424 832 512 832 64 631.424 64 384s200.576-448 448-448zM204.8 385.6c0 17.984 13.984 32.544 32.16 32.544h550.048c17.76 0 32.16-14.464 32.16-32.544v-3.2c0-17.952-13.984-32.544-32.16-32.544H236.96A32.288 32.288 0 0 0 204.8 382.4v3.2z"  horiz-adv-x="1024" />

    
    <glyph glyph-name="delete" unicode="&#58917;" d="M682.656 145.05600000000004V479.552c0 17.664 14.848 31.968 32 31.968 17.664 0 32-14.464 32-31.968v-350.848c2.72-4.768 4.256-10.272 4.256-16.192v-3.2c0-17.952-14.624-32.544-32.384-32.544H311.456c-17.664 0-32 14.464-32 32V479.904c0 17.664 14.848 32 32 32 17.664 0 32-14.464 32-32v-334.848h339.2zM512-128C229.216-128 0 101.21600000000001 0 384S229.216 896 512 896s512-229.216 512-512-229.216-512-512-512z m0 68.256c245.056 0 443.744 198.656 443.744 443.744S757.088 827.744 512 827.744C266.944 827.744 68.256 629.088 68.256 384S266.912-59.74400000000003 512-59.74400000000003zM238.304 607.456C238.304 625.44 252.864 640 270.72 640h479.2c17.888 0 32.416-14.464 32.416-32.544v-3.2c0-17.984-14.56-32.544-32.416-32.544H270.72a32.416 32.416 0 0 0-32.416 32.544v3.2z m171.296-153.44c0 17.888 14.848 32.384 32 32.384 17.664 0 32-14.688 32-32.384v-208.288c0-17.888-14.848-32.384-32-32.384-17.664 0-32 14.688-32 32.384v208.288z m143.488 0c0 17.888 14.848 32.384 32 32.384 17.664 0 32-14.688 32-32.384v-208.288c0-17.888-14.848-32.384-32-32.384-17.664 0-32 14.688-32 32.384v208.288zM448 704c0 17.664 13.696 32 32.288 32h63.392c17.824 0 32.288-14.848 32.288-32a31.68 31.68 0 0 0-32.288-32h-63.392A32.48 32.48 0 0 0 448 704z"  horiz-adv-x="1024" />

    
    <glyph glyph-name="upload1" unicode="&#58918;" d="M464.576 644.832L253.12 433.376a46.944 46.944 0 0 0-65.728-0.032 47.04 47.04 0 0 0 0.032 65.728l290.624 290.624a47.04 47.04 0 0 0 63.648 2.016c1.376-1.088 2.688-2.24 3.936-3.52l290.624-290.624a47.04 47.04 0 0 0 0.032-65.728c-17.6-17.6-47.584-18.112-65.728 0.032l-213.056 213.056v-446.784c0-25.184-20.8-46.88-46.464-46.88a47.168 47.168 0 0 0-46.464 46.88V644.832zM0 198.72000000000003c0 25.216 21.536 45.664 46.464 45.664 25.664 0 46.464-20.128 46.464-46.208v-233.568h837.6V199.03999999999996s-1.056 45.344 46.72 45.344 46.72-45.344 46.72-45.344l-0.768-277.92s1.12-23.36-11.168-36.224-34.784-10.272-34.784-10.272h-47.808l-789.184-2.464c-26.176-0.096-68.928-0.16-93.824-0.16-25.664 0-46.464 20.032-46.464 45.664V198.72000000000003z"  horiz-adv-x="1024" />

    
    <glyph glyph-name="download1" unicode="&#58919;" d="M464.576 310.496V849.408C464.576 875.136 486.112 896 511.04 896c25.664 0 46.464-21.472 46.464-46.592v-539.168l210.944 210.944a46.944 46.944 0 0 0 65.728 0.032 47.04 47.04 0 0 0-0.032-65.728l-289.12-289.12c-8.608-9.28-20.832-15.104-33.984-15.104-4.256 0-8.416 0.608-12.32 1.696a45.856 45.856 0 0 0-26.144 18.112l-284.96 284.96a47.04 47.04 0 0 0-0.032 65.728 46.976 46.976 0 0 0 65.728-0.032l211.264-211.264zM0 198.72000000000003c0 25.216 21.536 45.664 46.464 45.664 25.664 0 46.464-20.128 46.464-46.208v-233.568h837.6V199.03999999999996s-1.056 45.344 46.72 45.344 46.72-45.344 46.72-45.344l-0.768-277.92s1.12-23.36-11.168-36.224-34.784-10.272-34.784-10.272h-47.808l-789.184-2.464c-26.176-0.096-68.928-0.16-93.824-0.16-25.664 0-46.464 20.032-46.464 45.664V198.72000000000003z"  horiz-adv-x="1024" />

    
    <glyph glyph-name="home" unicode="&#58920;" d="M609.44 218.17600000000004l-93.824 0.096 0.352-284.128c0.416-2.88 0.48-6.08 0.128-9.632-1.92-19.712-13.728-27.744-23.488-31.008a36.576 36.576 0 0 0-12.896-2.304h3.264l-2.496 0.096h-1.312l-179.936-0.064H226.432h3.264a36.608 36.608 0 0 0-36.288 36.736V389.12c0 20.288 16.096 36.736 36.288 36.736h-3.264c20.032 0 36.288-16.576 36.256-36.544l-0.384-429.184 184.384 0.096v290.432c0 19.52 16.256 36.544 36.288 36.544h-3.264l73.44-0.032 88.928-0.032s33.568 1.216 36.928-33.248c0.384-3.872 0.256-7.36-0.256-10.432v-283.232l184.608-0.096-0.384 429.184a36.512 36.512 0 0 0 36.256 36.544h-3.264c20.224 0 36.288-16.448 36.288-36.736v-461.152c0-20.16-16.256-36.736-36.288-36.736h3.264-72.8l-179.936 0.064s-33.568-1.216-36.928 33.248a44.992 44.992 0 0 0-0.16 6.816V218.24z m476.448 155.584a36.192 36.192 0 0 0 0-51.328l2.304 2.304a36.64 36.64 0 0 0-51.872 0.576L548.512 813.664 57.216 322.17600000000004s-26.08-24.256-48.064 2.464 2.624 49.6 2.624 49.6L473.6 836.16 525.152 887.712l-2.304-2.304a36.544 36.544 0 0 0 51.328 0l511.712-511.712zM875.168 701.76c0-20.576-16.096-37.28-36.288-37.28h3.264a36.064 36.064 0 0 0-36.16 36.48l0.288 78.816-82.88-0.128s-35.616 1.28-32.256 35.744 36.928 33.248 36.928 33.248l13.536 0.064h100.544-3.264c20.032 0 36.288-16.992 36.288-37.28V701.76z"  horiz-adv-x="1096" />

    
    <glyph glyph-name="rotate_right" unicode="&#58921;" d="M275.199914 445.503821v-20.031994c0.384 38.079988 12.543996 67.423979 36.479989 87.967973 22.431993 20.351994 49.215985 30.55999 80.319975 30.55999 32.06399 0 59.295981-10.175997 81.759974-30.55999 22.815993-20.543994 34.591989-49.887984 35.359989-87.967973v-123.935961c-0.768-37.887988-12.543996-67.135979-35.359989-87.679973-22.431993-20.351994-49.695984-30.75199-81.759974-31.10399a120.255962 120.255962 0 0 0-72.991978 24.895992c-21.503993 15.839995-35.359989 38.751988-41.567987 68.735979h60.831981c9.247997-23.007993 27.167992-34.495989 53.759983-34.49599 37.535988 0.384 56.863982 21.407993 57.983982 63.071981v38.751988c-28.095991-8.863997-54.303983-13.119996-78.623975-12.735996a91.263971 91.263971 0 0 0-68.447979 27.711991c-18.847994 18.303994-28.095991 47.231985-27.711991 86.847973z m62.55998-24.863992c7.103998-24.799992 25.215992-37.343988 54.271983-37.663989 27.103992 0.288 44.703986 11.327996 52.831984 33.11999 3.135999 8.383997 2.655999 29.599991-1.28 38.559988-8.607997 19.615994-25.791992 29.695991-51.551984 30.20799-28.383991-0.576-46.303986-12.639996-53.759983-36.159988a58.719982 58.719982 0 0 1-0.512-28.063991z m390.335878-115.711964v116.895963c-1.12 41.311987-20.447994 62.335981-57.983981 63.07198-37.727988-0.768-56.959982-21.791993-57.695982-63.07198v-116.895963c0.768-41.663987 19.999994-62.68798 57.695982-63.071981 37.535988 0.384 56.863982 21.407993 57.983981 63.071981z m-174.815945-3.391999v123.935961c0.384 38.079988 12.543996 67.423979 36.479989 87.967973 22.431993 20.351994 49.215985 30.55999 80.319975 30.55999 32.06399 0 59.295981-10.175997 81.759974-30.55999 22.815993-20.543994 34.591989-49.887984 35.359989-87.967973v-123.935961c-0.768-37.887988-12.543996-67.135979-35.359989-87.679973-22.431993-20.351994-49.695984-30.75199-81.759974-31.10399-31.10399 0.384-57.887982 10.751997-80.319975 31.10399-23.935993 20.543994-36.127989 49.791984-36.479989 87.679973z m282.559912 479.07185A509.887841 509.887841 0 0 1 511.99984 895.99968C229.215928 895.99968 0 666.783752 0 383.99983999999995s229.215928-511.99984 511.99984-511.99984 511.99984 229.215928 511.99984 511.99984c0 3.743999-0.032 7.455998-0.128 11.167997-1.631999 11.295996-8.159997 27.103992-31.87199 27.103991-27.487991 0-31.67999-21.247993-32.03199-32.06399l0.032-4.127999a30.62399 30.62399 0 0 1 0.16-2.079999H959.9997c0-247.423923-200.575937-447.99986-447.99986-447.99986S63.99998 136.575917 63.99998 383.99983999999995 264.575917 831.9997 511.99984 831.9997a446.079861 446.079861 0 0 0 277.439913-96.22397l-94.91197-91.679971c-25.439992-24.607992-17.439995-44.991986 17.887994-45.599986l188.031942-3.295999a64.31998 64.31998 0 0 1 65.055979 62.84798l3.295999 188.127942C969.407697 880.959685 949.311703 890.207682 923.871711 865.631689l-87.999972-85.023973z"  horiz-adv-x="1024" />

    
    <glyph glyph-name="shrink" unicode="&#58922;" d="M746.123879 506.502699l266.383826 266.383826c15.461059 15.461059 15.109671 40.888751 0.191666 55.806757a39.834588 39.834588 0 0 1-55.806756-0.191666l-266.447715-266.447715V703.854813c0 21.306873-18.240216 38.556815-39.323479 38.556815-21.722149 0-39.323479-16.898554-39.323479-38.556815v-237.378368c0-10.509687 4.440263-20.061044 11.499961-27.024909 6.804144-7.251364 16.355501-11.531906 27.056854-11.531906h237.378368c21.306873 0 38.556815 18.240216 38.556815 39.323479 0 21.722149-16.898554 39.323479-38.556815 39.323479h-141.64119zM389.497301 149.876121l-266.383826-266.383826a39.866533 39.866533 0 0 0-55.806757-0.191666 39.834588 39.834588 0 0 0 0.191666 55.806756l266.447715 266.447715H192.145187c-21.306873 0-38.556815 18.240216-38.556815 39.323479 0 21.722149 16.898554 39.323479 38.556815 39.323479h237.378368c10.509687 0 20.061044-4.440263 27.024909-11.499961 7.251364-6.804144 11.531906-16.355501 11.531906-27.056854v-237.378368c0-21.306873-18.240216-38.556815-39.323479-38.556815-21.722149 0-39.323479 16.898554-39.323479 38.556815v141.64119z m-55.870645 356.626578L67.242829 772.886525a39.866533 39.866533 0 0 0-0.191666 55.806757 39.834588 39.834588 0 0 0 55.806757-0.191666l266.447715-266.447715V703.854813c0 21.306873 18.240216 38.556815 39.323479 38.556815 21.722149 0 39.323479-16.898554 39.323479-38.556815v-237.378368c0-10.509687-4.440263-20.061044-11.499962-27.024909a36.704043 36.704043 0 0 0-27.056853-11.531906H192.01741c-21.306873 0-38.556815 18.240216-38.556815 39.323479 0 21.722149 16.898554 39.323479 38.556815 39.323479h141.64119z m356.626578-356.626578l266.383826-266.383826c15.461059-15.461059 40.888751-15.109671 55.806757-0.191666a39.834588 39.834588 0 0 1-0.191666 55.806756l-266.447715 266.447715h141.800912c21.306873 0 38.556815 18.240216 38.556814 39.323479 0 21.722149-16.898554 39.323479-38.556814 39.323479h-237.378369c-10.509687 0-20.061044-4.440263-27.024909-11.499961a36.704043 36.704043 0 0 1-11.531905-27.056854v-237.378368c0-21.306873 18.240216-38.556815 39.323479-38.556815 21.722149 0 39.323479 16.898554 39.323478 38.556815v141.64119z"  horiz-adv-x="1025" />

    
    <glyph glyph-name="refresh" unicode="&#58923;" d="M62.38752 628.256a499.616 499.616 0 0 1-41.28-385.44c79.776-269.984 368.16-425.6 641.472-346.944 172.352 49.632 304.544 181.28 353.088 351.968 0.544 1.664 0.544 6.144 0.544 10.048 0 26.784-20.64 46.304-45.184 46.304-19.52 0-37.92-12.832-43.52-30.688-38.496-140-146.144-248.768-288.384-289.504-222.56-64.16-457.408 62.464-522.112 282.816-31.232 105.984-19.52 217.536 34.016 314.592 54.112 98.72 143.904 170.144 252.672 201.376 143.904 41.28 300.64 3.36 408.864-98.72l20.096-18.976-127.744-112.672 319.072-30.688-3.36 312.352-117.696-106.528-16.736 16.736A526.208 526.208 0 0 1 517.49152 896c-48.544 0-97.056-6.688-145.024-20.64-133.888-38.496-243.744-126.624-310.144-247.104z"  horiz-adv-x="1024" />

    
    <glyph glyph-name="rotate_left" unicode="&#58924;" d="M275.199914 445.503821v-20.031994c0.384 38.079988 12.543996 67.423979 36.479989 87.967973 22.431993 20.351994 49.215985 30.55999 80.319975 30.55999 32.06399 0 59.295981-10.175997 81.759974-30.55999 22.815993-20.543994 34.591989-49.887984 35.359989-87.967973v-123.935961c-0.768-37.887988-12.543996-67.135979-35.359989-87.679973-22.431993-20.351994-49.695984-30.75199-81.759974-31.10399a120.255962 120.255962 0 0 0-72.991978 24.895992c-21.503993 15.839995-35.359989 38.751988-41.567987 68.735979h60.831981c9.247997-23.007993 27.167992-34.495989 53.759983-34.49599 37.535988 0.384 56.863982 21.407993 57.983982 63.071981v38.751988c-28.095991-8.863997-54.303983-13.119996-78.623975-12.735996a91.263971 91.263971 0 0 0-68.447979 27.711991c-18.847994 18.303994-28.095991 47.231985-27.711991 86.847973z m62.55998-24.863992c7.103998-24.799992 25.215992-37.343988 54.271983-37.663989 27.103992 0.288 44.703986 11.327996 52.831984 33.11999 3.135999 8.383997 2.655999 29.599991-1.28 38.559988-8.607997 19.615994-25.791992 29.695991-51.551984 30.20799-28.383991-0.576-46.303986-12.639996-53.759983-36.159988a58.719982 58.719982 0 0 1-0.512-28.063991z m390.335878-115.711964v116.895963c-1.12 41.311987-20.447994 62.335981-57.983981 63.07198-37.727988-0.768-56.959982-21.791993-57.695982-63.07198v-116.895963c0.768-41.663987 19.999994-62.68798 57.695982-63.071981 37.535988 0.384 56.863982 21.407993 57.983981 63.071981z m-174.815945-3.391999v123.935961c0.384 38.079988 12.543996 67.423979 36.479989 87.967973 22.431993 20.351994 49.215985 30.55999 80.319975 30.55999 32.06399 0 59.295981-10.175997 81.759974-30.55999 22.815993-20.543994 34.591989-49.887984 35.359989-87.967973v-123.935961c-0.768-37.887988-12.543996-67.135979-35.359989-87.679973-22.431993-20.351994-49.695984-30.75199-81.759974-31.10399-31.10399 0.384-57.887982 10.751997-80.319975 31.10399-23.935993 20.543994-36.127989 49.791984-36.479989 87.679973zM188.159941 780.607716A509.887841 509.887841 0 0 0 511.99984 895.99968c282.783912 0 511.99984-229.215928 511.99984-511.99984s-229.215928-511.99984-511.99984-511.99984S0 101.21592799999996 0 383.99983999999995c0 3.743999 0.032 7.455998 0.128 11.167997 1.631999 11.295996 8.159997 27.103992 31.87199 27.103991 27.487991 0 31.67999-21.247993 32.03199-32.06399L63.99998 386.079839a30.62399 30.62399 0 0 0-0.16-2.079999H63.99998c0-247.423923 200.575937-447.99986 447.99986-447.99986s447.99986 200.575937 447.99986 447.99986S759.423763 831.9997 511.99984 831.9997a446.079861 446.079861 0 0 1-277.439913-96.22397l94.91197-91.679971c25.439992-24.607992 17.439995-44.991986-17.887994-45.599986L123.551961 595.1997739999999a64.31998 64.31998 0 0 0-65.055979 62.84798l-3.295999 188.127942C54.591983 880.959685 74.687977 890.207682 100.127969 865.631689l87.999972-85.023973z"  horiz-adv-x="1024" />

    


  </font>
</defs>
</svg>
